<svg width="16" height="16" viewBox="0 0 16 16" fill="none" xmlns="http://www.w3.org/2000/svg">
<path id="Vector" d="M2.90909 6.4V16H0V6.4H2.90909ZM5.81818 16C5.43241 16 5.06244 15.8314 4.78966 15.5314C4.51688 15.2313 4.36364 14.8243 4.36364 14.4V6.4C4.36364 5.96 4.52364 5.56 4.79273 5.272L9.57818 0L10.3491 0.848C10.5455 1.064 10.6691 1.36 10.6691 1.688L10.6473 1.944L9.95636 5.6H14.5455C15.3527 5.6 16 6.32 16 7.2V8.8C16 9.008 15.9636 9.2 15.8982 9.384L13.7018 15.024C13.4836 15.6 12.9673 16 12.3636 16H5.81818ZM5.81818 14.4H12.3855L14.5455 8.8V7.2H8.15273L8.97455 2.944L5.81818 6.424V14.4Z" fill="white"/>
</svg>
