<svg width="22" height="22" viewBox="0 0 22 22" fill="none" xmlns="http://www.w3.org/2000/svg">
<path id="Vector" d="M18.5263 5.78947V9.25158C18.5263 9.25158 16.2221 9.26316 16.2105 9.25158V5.78947H12.7368C12.7368 5.78947 12.7484 3.48526 12.7368 3.47368H16.2105V0H18.5263V3.47368H22V5.78947H18.5263ZM15.0526 10.4211V6.94737H11.5789V3.47368H2.31579C1.04211 3.47368 0 4.51579 0 5.78947V19.6842C0 20.9579 1.04211 22 2.31579 22H16.2105C17.4842 22 18.5263 20.9579 18.5263 19.6842V10.4211H15.0526ZM2.31579 19.6842L5.78947 15.0526L8.10526 18.5263L11.5789 13.8947L16.2105 19.6842H2.31579Z" fill="white"/>
</svg>
